<svg width="172" height="207" viewBox="0 0 172 207" fill="none" xmlns="http://www.w3.org/2000/svg">
<g clip-path="url(#clip0_1011_381)">
<path d="M53.68 0.000234375H5.32C2.01 0.000234375 0.23 1.77023 0 5.32023C0.23 8.87023 2.01 10.6402 5.32 10.6402H37.6C40.92 10.6402 42.69 12.4502 42.92 16.0802C42.69 19.6302 40.91 21.4002 37.6 21.4002H10.87C4.08 21.4002 0.46 24.9502 0 32.0402V59.0002C0.23 62.4702 2.01 64.2102 5.32 64.2102H10.87C14.19 64.2102 15.96 62.4702 16.19 59.0002V37.4802C16.19 33.8602 17.96 32.0402 21.51 32.0402C25.06 32.0402 26.72 33.8502 26.72 37.4802V53.6802C26.72 56.9202 27.61 59.4802 29.38 61.3702C31.15 63.2602 33.89 64.2002 37.59 64.2002H58.99C62.54 64.2002 64.31 62.4602 64.31 58.9902V48.1102C64.08 44.5602 62.3 42.7902 58.99 42.7902H53.67C50.12 42.7902 48.31 41.0202 48.23 37.4702C48.38 33.8502 50.2 32.0302 53.67 32.0302C60.77 32.0302 64.31 28.4802 64.31 21.3902V10.6302C64.31 3.53023 60.76 -0.00976562 53.67 -0.00976562L53.68 0.000234375Z" fill="#F230D2"/>
<path d="M106.9 64.2098C103.35 63.9798 101.58 62.1998 101.58 58.8898V32.0498C102.04 24.9498 105.67 21.4098 112.45 21.4098H139.17C142.49 21.4098 144.26 19.6398 144.49 16.0898C144.26 12.4698 142.48 10.6498 139.17 10.6498H106.89C103.57 10.6498 101.8 8.87977 101.57 5.32977C101.8 1.77977 103.58 0.00976562 106.89 0.00976562H160.57C164.12 0.239766 165.89 2.01977 165.89 5.32977V21.4098C165.89 28.5098 162.34 32.0498 155.25 32.0498H128.41C124.86 32.0498 123.09 33.7498 123.09 37.1398V37.5998C123.32 41.0698 125.1 42.8098 128.41 42.8098H160.57C164.12 43.0398 165.89 44.8198 165.89 48.1298V59.0098C165.89 60.6298 165.45 61.8998 164.56 62.8298C163.67 63.7598 162.46 64.2198 160.92 64.2198H106.89L106.9 64.2098Z" fill="#F230D2"/>
<path d="M58.57 72.1299C61.89 72.1299 63.89 73.8999 63.89 77.4499C63.89 80.9999 61.88 82.7699 58.57 82.7699H26.72C23.71 82.7699 21.51 84.1999 21.51 87.1699V89.2499C21.51 92.1399 23.71 93.5299 26.72 93.5299H58.57C61.89 93.5299 63.89 95.2999 63.89 98.8499C63.89 102.4 61.88 104.29 58.57 104.29H26.72C23.71 104.29 21.51 105.68 21.51 108.57V131.13C21.28 134.6 19.5 136.34 16.19 136.34H5.32C1.77 136.34 0 134.6 0 131.13V77.4499C0 74.1299 1.77 72.1299 5.32 72.1299H58.57Z" fill="#F230D2"/>
<path d="M93.7092 99.82V131.17C93.7092 134.65 91.6992 136.38 88.3892 136.38H77.5192C73.9692 136.38 72.1992 134.64 72.1992 131.17V99.82C72.1992 96.26 74.2092 94.5 77.5192 94.5H88.3892C91.7092 94.5 93.7092 96.27 93.7092 99.82V99.82Z" fill="#F230D2"/>
<path d="M155.09 72.1301H106.73C103.41 72.1301 101.64 73.9001 101.41 77.4501C101.64 81.0001 103.42 82.7701 106.73 82.7701H139.01C142.33 82.7701 144.1 84.5801 144.33 88.2101C144.1 91.7601 142.32 93.5301 139.01 93.5301H112.29C105.5 93.5301 101.88 97.0801 101.42 104.17V131.13C101.65 134.6 103.43 136.34 106.74 136.34H112.29C115.61 136.34 117.38 134.6 117.61 131.13V109.61C117.61 105.99 119.38 104.17 122.93 104.17C126.48 104.17 128.14 105.98 128.14 109.61V125.81C128.14 129.05 129.03 131.61 130.8 133.5C132.57 135.39 135.31 136.33 139.01 136.33H160.41C163.96 136.33 165.73 134.59 165.73 131.12V120.24C165.5 116.69 163.72 114.92 160.41 114.92H155.09C151.54 114.92 149.73 113.15 149.65 109.6C149.8 105.98 151.62 104.16 155.09 104.16C162.19 104.16 165.73 100.61 165.73 93.5201V82.7601C165.73 75.6601 162.18 72.1201 155.09 72.1201V72.1301Z" fill="#F230D2"/>
<path d="M69.65 206.66H5.12C3.58 206.66 2.36 206.2 1.48 205.27C0.59 204.34 0.15 203.07 0.15 201.45V190.57C0.15 187.25 1.92 185.25 5.47 185.25H53.46C56.78 185.25 58.78 183.52 58.78 180.04V179.58C58.78 176.19 57.01 174.49 53.46 174.49H10.64C3.54 174.49 0 170.94 0 163.85V153.09C0 145.99 3.55 142.45 10.64 142.45H59C62.32 142.45 64.09 144.22 64.32 147.77C64.09 151.32 62.31 153.09 59 153.09H26.72C23.4 153.09 21.4 154.9 21.4 158.53C21.4 162.16 23.41 163.85 26.72 163.85H67.12C73.91 163.85 80.29 167.38 80.29 174.49V196.01C80.29 203.1 76.74 206.65 69.65 206.65V206.66Z" fill="#F230D2"/>
<path d="M165.52 185.25C165.52 194.04 161.95 200.21 154.88 203.88C151.85 205.45 148.29 206.66 144.12 206.66H93.8102C90.4902 206.66 88.4902 204.93 88.4902 201.45V190.57C88.4902 187.25 90.2602 185.25 93.8102 185.25H138.66C146.93 185.25 146.45 174.29 138.83 174.4H111.83C111.59 174.44 111.35 174.49 111.09 174.49H100.21C92.9502 174.49 89.3402 170.48 89.3402 163.85V147.77C89.3402 144.45 91.1102 142.45 94.6602 142.45H100.21C103.53 142.45 105.53 144.22 105.53 147.77V158.53C105.53 161.92 107.34 163.7 110.97 163.85H137.7C141.07 163.63 144.12 163.52 144.12 157.56V147.77C144.12 144.22 145.89 142.45 149.44 142.45H160.2C163.52 142.45 165.29 144.22 165.52 147.77V185.25V185.25Z" fill="#F230D2"/>
<path d="M93.7092 78.5798V85.6098C93.7092 89.0898 91.6992 90.8198 88.3892 90.8198H77.5192C73.9692 90.8198 72.1992 89.0798 72.1992 85.6098V78.5798C72.1992 75.0198 74.2092 73.2598 77.5192 73.2598H88.3892C91.7092 73.2598 93.7092 75.0298 93.7092 78.5798V78.5798Z" fill="#F230D2"/>
<path d="M93.7092 27.6501V59.0001C93.7092 62.4801 91.6992 64.2101 88.3892 64.2101H77.5192C73.9692 64.2101 72.1992 62.4701 72.1992 59.0001V27.6501C72.1992 24.0901 74.2092 22.3301 77.5192 22.3301H88.3892C91.7092 22.3301 93.7092 24.1001 93.7092 27.6501V27.6501Z" fill="#F230D2"/>
<path d="M93.7092 6.41961V13.4496C93.7092 16.9296 91.6992 18.6596 88.3892 18.6596H77.5192C73.9692 18.6596 72.1992 16.9196 72.1992 13.4496V6.41961C72.1992 2.85961 74.2092 1.09961 77.5192 1.09961H88.3892C91.7092 1.09961 93.7092 2.86961 93.7092 6.41961V6.41961Z" fill="#F230D2"/>
<path d="M59.3106 0.000234375H10.9606C7.64063 0.000234375 5.87063 1.77023 5.64062 5.32023C5.87063 8.87023 7.65063 10.6402 10.9606 10.6402H43.2406C46.5606 10.6402 48.3306 12.4502 48.5606 16.0802C48.3306 19.6302 46.5506 21.4002 43.2406 21.4002H16.5206C9.73063 21.4002 6.11063 24.9502 5.65063 32.0402V59.0002C5.88063 62.4702 7.66063 64.2102 10.9706 64.2102H16.5206C19.8406 64.2102 21.6106 62.4702 21.8406 59.0002V37.4802C21.8406 33.8602 23.6106 32.0402 27.1606 32.0402C30.7106 32.0402 32.3706 33.8502 32.3706 37.4802V53.6802C32.3706 56.9202 33.2606 59.4802 35.0306 61.3702C36.8006 63.2602 39.5406 64.2002 43.2406 64.2002H64.6406C68.1906 64.2002 69.9606 62.4602 69.9606 58.9902V48.1102C69.7306 44.5602 67.9506 42.7902 64.6406 42.7902H59.3206C55.7706 42.7902 53.9606 41.0202 53.8806 37.4702C54.0306 33.8502 55.8506 32.0302 59.3206 32.0302C66.4206 32.0302 69.9606 28.4802 69.9606 21.3902V10.6302C69.9606 3.53023 66.4106 -0.00976562 59.3206 -0.00976562L59.3106 0.000234375Z" fill="#0D0D0D"/>
<path d="M112.529 64.2098C108.979 63.9798 107.209 62.1998 107.209 58.8898V32.0498C107.669 24.9498 111.299 21.4098 118.079 21.4098H144.799C148.119 21.4098 149.889 19.6398 150.119 16.0898C149.889 12.4698 148.109 10.6498 144.799 10.6498H112.519C109.199 10.6498 107.429 8.87977 107.199 5.32977C107.429 1.77977 109.209 0.00976562 112.519 0.00976562H166.199C169.749 0.239766 171.519 2.01977 171.519 5.32977V21.4098C171.519 28.5098 167.969 32.0498 160.879 32.0498H134.039C130.489 32.0498 128.719 33.7498 128.719 37.1398V37.5998C128.949 41.0698 130.729 42.8098 134.039 42.8098H166.199C169.749 43.0398 171.519 44.8198 171.519 48.1298V59.0098C171.519 60.6298 171.079 61.8998 170.189 62.8298C169.299 63.7598 168.089 64.2198 166.549 64.2198H112.519L112.529 64.2098Z" fill="#0D0D0D"/>
<path d="M64.2106 72.1299C67.5306 72.1299 69.5306 73.8999 69.5306 77.4499C69.5306 80.9999 67.5206 82.7699 64.2106 82.7699H32.3606C29.3506 82.7699 27.1506 84.1999 27.1506 87.1699V89.2499C27.1506 92.1399 29.3506 93.5299 32.3606 93.5299H64.2106C67.5306 93.5299 69.5306 95.2999 69.5306 98.8499C69.5306 102.4 67.5206 104.29 64.2106 104.29H32.3606C29.3506 104.29 27.1506 105.68 27.1506 108.57V131.13C26.9206 134.6 25.1406 136.34 21.8306 136.34H10.9606C7.41063 136.34 5.64062 134.6 5.64062 131.13V77.4499C5.64062 74.1299 7.41063 72.1299 10.9606 72.1299H64.2106V72.1299Z" fill="#0D0D0D"/>
<path d="M99.3401 99.82V131.17C99.3401 134.65 97.3301 136.38 94.0201 136.38H83.1501C79.6001 136.38 77.8301 134.64 77.8301 131.17V99.82C77.8301 96.26 79.8401 94.5 83.1501 94.5H94.0201C97.3401 94.5 99.3401 96.27 99.3401 99.82Z" fill="#0D0D0D"/>
<path d="M160.731 72.1301H112.371C109.051 72.1301 107.281 73.9001 107.051 77.4501C107.281 81.0001 109.061 82.7701 112.371 82.7701H144.651C147.971 82.7701 149.741 84.5801 149.971 88.2101C149.741 91.7601 147.961 93.5301 144.651 93.5301H117.931C111.141 93.5301 107.521 97.0801 107.061 104.17V131.13C107.291 134.6 109.071 136.34 112.381 136.34H117.931C121.251 136.34 123.021 134.6 123.251 131.13V109.61C123.251 105.99 125.021 104.17 128.571 104.17C132.121 104.17 133.781 105.98 133.781 109.61V125.81C133.781 129.05 134.671 131.61 136.441 133.5C138.211 135.39 140.951 136.33 144.651 136.33H166.051C169.601 136.33 171.371 134.59 171.371 131.12V120.24C171.141 116.69 169.361 114.92 166.051 114.92H160.731C157.181 114.92 155.371 113.15 155.291 109.6C155.441 105.98 157.261 104.16 160.731 104.16C167.831 104.16 171.371 100.61 171.371 93.5201V82.7601C171.371 75.6601 167.821 72.1201 160.731 72.1201V72.1301Z" fill="#0D0D0D"/>
<path d="M75.2806 206.66H10.7506C9.21063 206.66 7.99063 206.2 7.11063 205.27C6.22063 204.34 5.78063 203.07 5.78063 201.45V190.57C5.78063 187.25 7.55063 185.25 11.1006 185.25H59.0906C62.4106 185.25 64.4106 183.52 64.4106 180.04V179.58C64.4106 176.19 62.6406 174.49 59.0906 174.49H16.2806C9.18063 174.49 5.64062 170.94 5.64062 163.85V153.09C5.64062 145.99 9.19063 142.45 16.2806 142.45H64.6406C67.9606 142.45 69.7306 144.22 69.9606 147.77C69.7306 151.32 67.9506 153.09 64.6406 153.09H32.3606C29.0406 153.09 27.0406 154.9 27.0406 158.53C27.0406 162.16 29.0506 163.85 32.3606 163.85H72.7606C79.5506 163.85 85.9306 167.38 85.9306 174.49V196.01C85.9306 203.1 82.3806 206.65 75.2906 206.65L75.2806 206.66Z" fill="#0D0D0D"/>
<path d="M171.149 185.25C171.149 194.04 167.579 200.21 160.509 203.88C157.479 205.45 153.919 206.66 149.749 206.66H99.4391C96.1191 206.66 94.1191 204.93 94.1191 201.45V190.57C94.1191 187.25 95.8891 185.25 99.4391 185.25H144.289C152.559 185.25 152.079 174.29 144.459 174.4H117.459C117.219 174.44 116.979 174.49 116.719 174.49H105.839C98.5791 174.49 94.9691 170.48 94.9691 163.85V147.77C94.9691 144.45 96.7391 142.45 100.289 142.45H105.839C109.159 142.45 111.159 144.22 111.159 147.77V158.53C111.159 161.92 112.969 163.7 116.599 163.85H143.329C146.699 163.63 149.749 163.52 149.749 157.56V147.77C149.749 144.22 151.519 142.45 155.069 142.45H165.829C169.149 142.45 170.919 144.22 171.149 147.77V185.25V185.25Z" fill="#0D0D0D"/>
<path d="M99.3401 78.5798V85.6098C99.3401 89.0898 97.3301 90.8198 94.0201 90.8198H83.1501C79.6001 90.8198 77.8301 89.0798 77.8301 85.6098V78.5798C77.8301 75.0198 79.8401 73.2598 83.1501 73.2598H94.0201C97.3401 73.2598 99.3401 75.0298 99.3401 78.5798V78.5798Z" fill="#0D0D0D"/>
<path d="M99.3401 27.6501V59.0001C99.3401 62.4801 97.3301 64.2101 94.0201 64.2101H83.1501C79.6001 64.2101 77.8301 62.4701 77.8301 59.0001V27.6501C77.8301 24.0901 79.8401 22.3301 83.1501 22.3301H94.0201C97.3401 22.3301 99.3401 24.1001 99.3401 27.6501V27.6501Z" fill="#0D0D0D"/>
<path d="M99.3401 6.41961V13.4496C99.3401 16.9296 97.3301 18.6596 94.0201 18.6596H83.1501C79.6001 18.6596 77.8301 16.9196 77.8301 13.4496V6.41961C77.8301 2.85961 79.8401 1.09961 83.1501 1.09961H94.0201C97.3401 1.09961 99.3401 2.86961 99.3401 6.41961V6.41961Z" fill="#0D0D0D"/>
</g>
<defs>
<clipPath id="clip0_1011_381">
<rect width="171.53" height="206.66" fill="white"/>
</clipPath>
</defs>
</svg>
