<svg width="70" height="70" viewBox="0 0 70 70" fill="none" xmlns="http://www.w3.org/2000/svg">
<path d="M53.68 3.01H5.32C2.01 3.01 0.23 4.78 0 8.33C0.23 11.88 2.01 13.65 5.32 13.65H37.6C40.92 13.65 42.69 15.46 42.92 19.09C42.69 22.64 40.91 24.41 37.6 24.41H10.87C4.08 24.41 0.46 27.96 0 35.05V62.01C0.23 65.48 2.01 67.22 5.32 67.22H10.87C14.19 67.22 15.96 65.48 16.19 62.01V40.49C16.19 36.87 17.96 35.05 21.51 35.05C25.06 35.05 26.72 36.86 26.72 40.49V56.69C26.72 59.93 27.61 62.49 29.38 64.38C31.15 66.27 33.89 67.21 37.59 67.21H58.99C62.54 67.21 64.31 65.47 64.31 62V51.12C64.08 47.57 62.3 45.8 58.99 45.8H53.67C50.12 45.8 48.31 44.03 48.23 40.48C48.38 36.86 50.2 35.04 53.67 35.04C60.77 35.04 64.31 31.49 64.31 24.4V13.64C64.31 6.54 60.76 3 53.67 3L53.68 3.01Z" fill="#F230D2"/>
<path d="M59.3106 3.01H10.9606C7.64063 3.01 5.87063 4.78 5.64062 8.33C5.87063 11.88 7.65063 13.65 10.9606 13.65H43.2406C46.5606 13.65 48.3306 15.46 48.5606 19.09C48.3306 22.64 46.5506 24.41 43.2406 24.41H16.5206C9.73063 24.41 6.11063 27.96 5.65063 35.05V62.01C5.88063 65.48 7.66063 67.22 10.9706 67.22H16.5206C19.8406 67.22 21.6106 65.48 21.8406 62.01V40.49C21.8406 36.87 23.6106 35.05 27.1606 35.05C30.7106 35.05 32.3706 36.86 32.3706 40.49V56.69C32.3706 59.93 33.2606 62.49 35.0306 64.38C36.8006 66.27 39.5406 67.21 43.2406 67.21H64.6406C68.1906 67.21 69.9606 65.47 69.9606 62V51.12C69.7306 47.57 67.9506 45.8 64.6406 45.8H59.3206C55.7706 45.8 53.9606 44.03 53.8806 40.48C54.0306 36.86 55.8506 35.04 59.3206 35.04C66.4206 35.04 69.9606 31.49 69.9606 24.4V13.64C69.9606 6.54 66.4106 3 59.3206 3L59.3106 3.01Z" fill="#0D0D0D"/>
</svg>
