<svg width="60" height="60" viewBox="0 0 60 60" fill="none" xmlns="http://www.w3.org/2000/svg">
<circle cx="22.9063" cy="30.542" r="21.9063" fill="url(#paint0_linear_1039_168)"/>
<path d="M59.0004 13.7431C59.0004 10.4097 56.671 8 51.3697 8C47.0724 8 37.3533 12.5784 31.3291 22.2172C31.4897 21.8959 32.6143 17.1167 32.6143 16.2331C32.6143 15.1889 32.4134 13.3816 30.6062 13.3816C29.2407 13.3816 26.6302 14.4259 26.59 15.3496C26.59 15.7913 27.2326 15.7512 27.2326 16.8355C27.2326 24.4261 24.8229 31.7355 22.1722 39.9284C22.0116 40.2096 21.7305 40.6112 21.7305 40.9726C21.7305 41.5349 22.5337 41.816 23.1763 41.816C24.6623 41.816 26.9515 40.9325 27.5941 39.6071C29.6825 31.4142 39.3614 13.3013 51.0484 13.3013C52.6147 13.3013 53.3778 14.0644 53.3778 15.2291C53.3778 19.0846 45.5463 27.7193 34.1806 29.2856C32.8552 29.4864 32.052 30.9724 32.052 32.1371C32.052 33.1813 36.269 42.9004 42.4137 42.9004C44.5021 42.9004 48.0363 42.4185 48.0765 39.1252C48.0765 38.4023 47.5544 36.595 46.6708 36.595C46.1085 36.595 46.229 38.0408 44.5824 38.0408C42.494 38.0408 38.0361 32.9805 38.0361 31.7355C38.0361 31.4142 38.6786 31.6953 39.8433 31.4142C51.4099 28.643 59.0004 19.7272 59.0004 13.7431Z" fill="black"/>
<defs>
<linearGradient id="paint0_linear_1039_168" x1="-6.18406" y1="68.2836" x2="41.423" y2="11.8736" gradientUnits="userSpaceOnUse">
<stop stop-color="#8950FC"/>
<stop offset="1" stop-color="white"/>
</linearGradient>
</defs>
</svg>
