<svg width="85" height="24" viewBox="0 0 85 24" fill="none" xmlns="http://www.w3.org/2000/svg">
<circle cx="11.1128" cy="11.4351" r="11.1128" fill="url(#paint0_linear_1039_162)"/>
<path d="M29.4222 2.91341C29.4222 1.22241 28.2406 0 25.5513 0C23.3713 0 18.4409 2.32258 15.3849 7.21222C15.4664 7.04924 16.0368 4.62479 16.0368 4.17657C16.0368 3.64686 15.935 2.73005 15.0182 2.73005C14.3255 2.73005 13.0012 3.25976 12.9808 3.72835C12.9808 3.95246 13.3068 3.93209 13.3068 4.48217C13.3068 8.33277 12.0844 12.0407 10.7397 16.1969C10.6582 16.3396 10.5156 16.5433 10.5156 16.7267C10.5156 17.0119 10.9231 17.1545 11.2491 17.1545C12.0029 17.1545 13.1642 16.7063 13.4902 16.034C14.5496 11.8778 19.4596 2.6893 25.3883 2.6893C26.1829 2.6893 26.57 3.0764 26.57 3.66723C26.57 5.62309 22.5971 10.0034 16.8314 10.798C16.1591 10.8998 15.7516 11.6537 15.7516 12.2445C15.7516 12.7742 17.8908 17.7046 21.008 17.7046C22.0674 17.7046 23.8603 17.4601 23.8807 15.7895C23.8807 15.4227 23.6158 14.5059 23.1676 14.5059C22.8823 14.5059 22.9435 15.2394 22.1082 15.2394C21.0487 15.2394 18.7873 12.6723 18.7873 12.0407C18.7873 11.8778 19.1132 12.0204 19.7041 11.8778C25.5717 10.472 29.4222 5.94907 29.4222 2.91341Z" fill="black"/>
<path d="M32.3825 15.2394C32.2806 14.8523 31.975 14.7708 31.7101 14.7708C31.1193 14.7708 31.2415 15.1986 30.447 15.1986C29.6117 15.1986 29.2653 14.5263 29.2653 13.7725C29.2653 12.9372 30.121 11.1036 30.121 10.7776C30.121 10.5942 29.9784 10.4109 29.6931 10.4109C29.2449 10.4109 28.0021 10.7572 27.5947 10.9813C27.0038 11.8778 26.6167 14.2615 26.6167 15.3413C26.6167 16.9304 27.7577 17.5416 28.9597 17.5416C30.5488 17.5416 32.3825 16.4822 32.3825 15.2394ZM31.1397 6.03056C31.1397 5.48048 30.284 5.41936 29.8561 5.41936C29.3875 5.41936 28.9801 5.5416 28.7763 5.92869C28.4707 6.5399 28.1244 7.59932 28.0633 7.96604C28.0633 8.43464 28.8171 8.43463 28.8171 8.43463C30.8341 8.31239 31.1397 6.5399 31.1397 6.03056Z" fill="black"/>
<path d="M42.3886 14.7097C42.3886 14.2818 42.1848 14.017 41.7773 14.017C41.8385 14.017 39.4955 14.5874 37.8249 14.5874C37.2341 14.5874 36.8266 14.4652 36.8266 14.1188C36.8266 13.3243 39.5363 12.1426 39.5363 10.4312C39.5363 9.00509 38.3546 8.90323 36.6228 8.90323C35.5227 8.90323 31.9981 9.55518 31.9981 11.1647C31.9981 11.6129 32.0388 12.163 32.5481 12.163C33.2612 12.163 34.8707 11.2258 35.6653 11.2258C36.032 11.2258 36.2765 11.4092 36.2765 11.9796C36.2765 12.8761 32.7723 14.6282 32.7723 16.1358C32.7723 17.1341 34.2391 17.3582 35.4616 17.3582C37.9675 17.3582 42.3886 17.3582 42.3886 14.7097Z" fill="black"/>
<path d="M50.6973 4.52292C50.6973 6.49915 49.1082 9.47368 46.4188 11.3684C47.2542 7.31409 48.4766 3.66723 49.8823 3.66723C50.5139 3.72835 50.6973 4.05433 50.6973 4.52292ZM53.9774 4.23769C53.9774 2.83192 53.2236 1.89474 51.8993 1.89474C46.8263 1.89474 44.4222 7.47708 43.3424 12.8353C43.2813 12.8557 43.2202 12.8761 43.1795 12.8761C42.6701 12.9983 41.7126 13.5076 41.7126 14.1392C41.7126 14.2615 41.7329 14.3633 41.8144 14.4856C41.9774 14.7504 42.4256 14.8319 42.9961 14.8523C42.6701 17.0119 42.5683 18.9881 42.5683 20.4143C42.5683 21.5552 42.7109 23.2054 43.4647 23.2054C44.0351 23.2054 45.3798 22.8998 45.6039 22.5127C45.6447 22.4312 45.665 22.3701 45.665 22.309C45.665 22.0441 45.2168 21.9219 45.2168 21.1273C45.2168 19.7216 45.4409 17.2564 45.8484 14.6282C46.1947 14.6078 46.5818 14.5874 47.0097 14.5874C48.4358 14.5874 48.7414 14.6282 49.7601 14.6282C50.1472 14.6282 50.2898 14.2411 50.2898 13.854C50.2898 13.4669 49.9842 12.8353 49.3323 12.8353C48.6396 12.8353 47.8042 12.9372 47.356 12.9372C47.0708 12.9372 47.0301 12.7538 47.0301 12.7538C49.4138 11.674 53.9774 7.66044 53.9774 4.23769Z" fill="black"/>
<path d="M57.0535 15.2394C56.9516 14.8523 56.646 14.7708 56.3812 14.7708C55.7903 14.7708 55.9126 15.1986 55.118 15.1986C54.2827 15.1986 53.9364 14.5263 53.9364 13.7725C53.9364 12.9372 54.792 11.1036 54.792 10.7776C54.792 10.5942 54.6494 10.4109 54.3642 10.4109C53.916 10.4109 52.6732 10.7572 52.2657 10.9813C51.6749 11.8778 51.2878 14.2615 51.2878 15.3413C51.2878 16.9304 52.4287 17.5416 53.6308 17.5416C55.2199 17.5416 57.0535 16.4822 57.0535 15.2394ZM55.8107 6.03056C55.8107 5.48048 54.955 5.41936 54.5272 5.41936C54.0586 5.41936 53.6511 5.5416 53.4474 5.92869C53.1418 6.5399 52.7954 7.59932 52.7343 7.96604C52.7343 8.43464 53.4881 8.43463 53.4881 8.43463C55.5051 8.31239 55.8107 6.5399 55.8107 6.03056Z" fill="black"/>
<path d="M73.8274 13.039C73.8274 11.3277 72.8291 9.77929 71.077 9.77929C69.2434 9.77929 67.9191 11.4092 66.5745 11.4092C65.1279 11.4092 66.2077 10.1256 64.4556 10.1256C62.6424 10.1256 60.6458 12.7334 60.3809 12.7334H60.3605C60.3198 12.7334 60.2994 12.6927 60.2994 12.6316C60.2994 12.1019 60.6865 11.348 60.6865 10.7776C60.6865 10.309 60.4217 9.96265 59.4641 9.96265C58.6084 9.96265 57.2434 10.4109 56.5711 10.8183C56.4285 10.8998 55.9191 11.6944 55.9191 12.1426C55.9191 12.4482 56.1228 12.6112 56.3673 12.6112C56.8155 12.6112 57.2841 12.326 57.8139 12.326C58.2824 12.326 58.4047 12.652 58.4047 12.9576C58.4047 13.854 57.4879 16.2784 57.4879 16.6655C57.4879 17.1749 58.3028 17.3582 59.1381 17.3582C60.0957 17.3379 60.1364 16.7674 60.5846 16.2377C61.0736 15.4024 62.9683 12.7131 63.9055 12.7131C64.5779 12.7131 64.7001 13.8336 66.2077 13.8336C67.0431 13.8336 69.6101 12.0815 70.0583 12.0815C71.1178 12.0815 71.6678 12.8353 71.6678 13.5891C71.6678 14.3633 71.0974 15.1375 69.875 15.1375C68.5507 15.1375 68.5711 14.18 68.021 14.18C67.3079 14.18 66.4318 15.382 66.4318 16.034C66.4318 16.6248 67.1857 17.4194 68.8359 17.4194C72.3402 17.4194 73.8274 15.1171 73.8274 13.039Z" fill="black"/>
<path d="M84.808 12C84.808 11.3684 83.8912 11.348 83.4226 11.348C82.9132 11.348 82.2205 11.4092 81.9964 11.6537C81.8131 11.8778 79.8572 13.9762 78.4514 13.9762C77.9013 13.9762 77.5754 13.6095 77.5754 13.1205C77.5754 12.3871 78.1051 11.4295 78.1051 10.7368C78.1051 9.96265 77.3716 9.82003 76.74 9.82003C73.7655 9.82003 72.7876 11.2054 72.7876 12.0815C72.7876 12.489 72.9913 12.7742 73.2969 12.7742C74.0304 12.7742 74.4786 12.3056 75.2732 12.2852C75.4769 12.3667 75.5584 12.5501 75.5584 12.7742C75.5584 13.1613 74.8861 14.5467 74.8861 15.5857C74.8861 16.2784 75.1917 16.8285 76.2103 16.8285C77.4735 16.8285 80.4888 15.6469 80.8962 15.1579C80.9777 15.1579 81.0592 15.1986 81.0592 15.3413C81.0592 15.7691 79.083 21.3718 79.083 22.9202C79.083 23.9796 79.8572 24 79.9998 24C81.4463 24 82.5669 23.4703 82.5669 22.798C82.5669 22.2071 82.0779 22.2886 82.0779 21.7385C82.0779 19.9049 84.808 12.9576 84.808 12Z" fill="black"/>
<defs>
<linearGradient id="paint0_linear_1039_162" x1="-3.64439" y1="30.581" x2="20.5061" y2="1.96481" gradientUnits="userSpaceOnUse">
<stop stop-color="#8950FC"/>
<stop offset="1" stop-color="white"/>
</linearGradient>
</defs>
</svg>
